<mxfile host="app.diagrams.net" agent="Mozilla/5.0 (Macintosh; Intel Mac OS X 10_15_7) AppleWebKit/537.36 (KHTML, like Gecko) Chrome/133.0.0.0 Safari/537.36" version="26.1.0">
  <diagram name="第 1 页" id="KB6b2LPOlrmd6zzLp5-_">
    <mxGraphModel dx="2182" dy="1035" grid="1" gridSize="10" guides="1" tooltips="1" connect="1" arrows="1" fold="1" page="1" pageScale="1" pageWidth="827" pageHeight="1169" math="0" shadow="0">
      <root>
        <mxCell id="0" />
        <mxCell id="1" parent="0" />
        <mxCell id="Vek37xuDfO8ECV00KmPB-5" value="" style="swimlane;startSize=0;" parent="1" vertex="1">
          <mxGeometry x="400" y="150" width="810" height="740" as="geometry" />
        </mxCell>
        <mxCell id="Vek37xuDfO8ECV00KmPB-2" value="" style="ellipse;whiteSpace=wrap;html=1;" parent="Vek37xuDfO8ECV00KmPB-5" vertex="1">
          <mxGeometry x="80" y="240" width="120" height="80" as="geometry" />
        </mxCell>
        <mxCell id="Vek37xuDfO8ECV00KmPB-3" value="" style="ellipse;whiteSpace=wrap;html=1;" parent="Vek37xuDfO8ECV00KmPB-5" vertex="1">
          <mxGeometry x="345" y="120" width="120" height="80" as="geometry" />
        </mxCell>
        <mxCell id="Vek37xuDfO8ECV00KmPB-1" value="" style="ellipse;whiteSpace=wrap;html=1;" parent="Vek37xuDfO8ECV00KmPB-5" vertex="1">
          <mxGeometry x="200" y="50" width="120" height="80" as="geometry" />
        </mxCell>
        <mxCell id="Vek37xuDfO8ECV00KmPB-4" value="" style="ellipse;whiteSpace=wrap;html=1;" parent="Vek37xuDfO8ECV00KmPB-5" vertex="1">
          <mxGeometry x="40" y="110" width="120" height="80" as="geometry" />
        </mxCell>
        <mxCell id="t7zutiOERvorRqEIVyiV-1" value="" style="whiteSpace=wrap;html=1;aspect=fixed;" vertex="1" parent="Vek37xuDfO8ECV00KmPB-5">
          <mxGeometry x="230" y="380" width="80" height="80" as="geometry" />
        </mxCell>
      </root>
    </mxGraphModel>
  </diagram>
</mxfile>
